<svg width="28" height="28" viewBox="0 0 28 28" fill="none" xmlns="http://www.w3.org/2000/svg">
<path d="M9.64494 17.127C9.43027 17.127 9.2856 17.148 9.21094 17.169V18.5433C9.2996 18.5643 9.41044 18.5701 9.56327 18.5701C10.1221 18.5701 10.4663 18.2878 10.4663 17.8106C10.4663 17.3836 10.1699 17.127 9.64494 17.127ZM13.7131 17.141C13.4798 17.141 13.3281 17.162 13.2383 17.183V20.228C13.3281 20.249 13.4728 20.249 13.6034 20.249C14.5566 20.256 15.1773 19.731 15.1773 18.6203C15.1843 17.652 14.6184 17.141 13.7131 17.141Z" fill="#DC143C"/>
<path d="M16.3332 2.33398H6.99984C6.381 2.33398 5.78751 2.57982 5.34992 3.0174C4.91234 3.45499 4.6665 4.04848 4.6665 4.66732V23.334C4.6665 23.9528 4.91234 24.5463 5.34992 24.9839C5.78751 25.4215 6.381 25.6673 6.99984 25.6673H20.9998C21.6187 25.6673 22.2122 25.4215 22.6497 24.9839C23.0873 24.5463 23.3332 23.9528 23.3332 23.334V9.33398L16.3332 2.33398ZM11.0808 18.889C10.7203 19.2273 10.1883 19.379 9.56884 19.379C9.44872 19.3803 9.32865 19.3733 9.2095 19.358V21.0217H8.1665V16.4297C8.6372 16.3594 9.11281 16.3274 9.58867 16.334C10.2385 16.334 10.7005 16.4577 11.012 16.7062C11.3083 16.9418 11.509 17.328 11.509 17.783C11.5078 18.2403 11.3562 18.6265 11.0808 18.889ZM15.5223 20.4698C15.0323 20.877 14.2868 21.0707 13.3757 21.0707C12.8297 21.0707 12.4435 21.0357 12.181 21.0007V16.4308C12.6519 16.3621 13.1273 16.3297 13.6032 16.334C14.4863 16.334 15.0603 16.4927 15.5083 16.831C15.9925 17.1903 16.2958 17.7632 16.2958 18.5857C16.2958 19.4758 15.9703 20.0907 15.5223 20.4698ZM19.8332 17.2323H18.0458V18.2952H19.7165V19.1515H18.0458V21.0228H16.9888V16.369H19.8332V17.2323ZM16.3332 10.5007H15.1665V4.66732L20.9998 10.5007H16.3332Z" fill="#DC143C"/>
</svg>
