<svg width="16" height="11" viewBox="0 0 16 11" fill="none" xmlns="http://www.w3.org/2000/svg">
<path d="M8 0C5.94 0 4.32 1.565 4.0935 3.5625C3.65792 3.63296 3.24945 3.81975 2.91124 4.10313C2.57303 4.38652 2.31762 4.75598 2.172 5.1725C0.942 5.527 0 6.624 0 8C0 9.662 1.338 11 3 11H13C14.662 11 16 9.662 16 8C16 7.12 15.5725 6.332 14.953 5.781C14.837 4.024 13.4355 2.622 11.672 2.531C11.07 1.0665 9.689 0 8 0ZM8 1C9.381 1 10.485 1.885 10.875 3.14L10.985 3.5H11.5C12.8775 3.5 14 4.6225 14 6V6.25L14.203 6.4065C14.448 6.59427 14.6471 6.83532 14.7852 7.11139C14.9232 7.38747 14.9967 7.69134 15 8C15 9.138 14.138 10 13 10H3C1.862 10 1 9.138 1 8C1 6.99 1.725 6.206 2.64 6.047L2.9685 5.9845L3.031 5.6555C3.181 4.982 3.778 4.5 4.5 4.5H5V4C5 2.315 6.315 1 8 1ZM8 3.797L7.64 4.1405L5.64 6.1405L6.36 6.8605L7.5 5.7185V9H8.5V5.7185L9.64 6.8595L10.36 6.1395L8.36 4.1395L8 3.797Z" fill="#1365B7"/>
</svg>
